<svg data-v-0dd9719b="" version="1.0" xmlns="http://www.w3.org/2000/svg" xmlns:xlink="http://www.w3.org/1999/xlink" width="100%" height="100%" viewBox="0 0 340.000000 250.000000" preserveAspectRatio="xMidYMid meet" color-interpolation-filters="sRGB" style="margin: auto;"> <rect data-v-0dd9719b="" x="0" y="0" width="100%" height="100%" fill="#fff" fill-opacity="1" class="background"></rect> <rect data-v-0dd9719b="" x="0" y="0" width="100%" height="100%" fill="url(#watermark)" fill-opacity="1" class="watermarklayer"></rect> <g data-v-0dd9719b="" fill="#333" class="icon-text-wrapper icon-svg-group iconsvg" transform="translate(48.57000732421875,96.74875068664551)"><g class="iconsvg-imagesvg" transform="translate(0,0)"><g><rect fill="#333" fill-opacity="0" stroke-width="2" x="0" y="0" width="60" height="56.50249552688577" class="image-rect"></rect> <svg x="0" y="0" width="60" height="56.50249552688577" filtersec="colorsb8264547574" class="image-svg-svg primary" style="overflow: visible;"><svg xmlns="http://www.w3.org/2000/svg" viewBox="-0.00001972117206605617 -0.000054597025155089796 106.1900634765625 100.00005340576172"><path d="M41.2 1.34v22.22a31.85 31.85 0 0 0-20 29.53v1.21H0v-1.21a53 53 0 0 1 10.24-31.36q1.38-1.87 2.93-3.65A53.17 53.17 0 0 1 41.2 1.34z" fill="#fdd365"></path><path d="M62.94.92V54.3H41.8l-.6-.77V1.34A52.91 52.91 0 0 1 53.09 0a52.38 52.38 0 0 1 9.85.92z" fill="#1775e2"></path><path d="M106.19 53.09v1.21H84.91v-1.21a31.84 31.84 0 0 0-22-30.28V.92a52.9 52.9 0 0 1 28.96 15.91 49 49 0 0 1 4.07 4.9 52.9 52.9 0 0 1 10.25 31.36z" fill="#0ce0a8"></path><path d="M46.26 76l-5 6.57-13.33 17.28A53.36 53.36 0 0 1 5.2 76z" fill="#7b51fb"></path><path d="M101 76a53.18 53.18 0 0 1-23 24L64.39 82.86 62.94 81 59 76z" fill="#f1b192"></path></svg></svg> <!----></g></g> <g transform="translate(67,0.32000160217285156)"><g data-gra="path-name" fill-rule="" class="tp-name iconsvg-namesvg" transform="translate(0,0)"><g transform="scale(1)"><g><path d="M24.7-19.93L42.8-19.93 42.8-17.68Q42.8-17.41 42.59-17.21 42.39-17.01 42.12-17.01L42.12-17.01 2.07-17.01 2.07-19.93 19.75-19.93 19.75-22.5 6.34-22.5 6.34-32.85 19.75-32.85 19.75-36.23 24.7-36.23 24.7-32.85 38.7-32.85 38.7-27.22Q38.7-22.5 33.98-22.5L33.98-22.5 24.7-22.5 24.7-19.93ZM11.29-25.43L19.75-25.43 19.75-29.92 11.29-29.92 11.29-25.43ZM33.75-29.92L24.7-29.92 24.7-25.43 32.17-25.43Q33.75-25.43 33.75-27L33.75-27 33.75-29.92ZM37.39-2.21L33.12-2.21 33.12-11.65 11.88-11.65 11.88-2.88Q11.88-2.61 11.68-2.41 11.47-2.21 11.21-2.21L11.21-2.21 6.93-2.21 6.93-14.58 38.07-14.58 38.07-2.88Q38.07-2.61 37.87-2.41 37.66-2.21 37.39-2.21L37.39-2.21ZM24.97-8.5Q24.97-5.8 27.83-3.69 30.69-1.57 34.56-0.22 38.43 1.13 41.85 1.75L41.85 1.75 41.85 4.68Q36.45 4 30.98 2.29 25.52 0.58 22.5-2.56L22.5-2.56Q19.48 0.58 14.02 2.29 8.55 4 3.15 4.68L3.15 4.68 3.15 1.75Q6.57 1.13 10.44-0.22 14.31-1.57 17.17-3.69 20.02-5.8 20.02-8.5L20.02-8.5 20.02-10.71 24.97-10.71 24.97-8.5ZM80.19-35.32L85.14-35.32 85.14 3.42Q85.14 3.69 84.94 3.89 84.73 4.09 84.47 4.09L84.47 4.09 80.19 4.09 80.19-12.82 76.95-12.82Q76.63-14.35 75.47-17.53 74.3-20.7 72.54-23.36L72.54-23.36 72.54 2.52Q72.54 2.79 72.34 2.99 72.13 3.19 71.86 3.19L71.86 3.19 67.59 3.19 67.59-12.82 64.89-12.82Q64.53-14.45 63.34-17.71 62.14-20.97 60.3-23.58L60.3-23.58 60.3-18.9Q60.3-8.5 57.87-3.13 55.44 2.25 50.67 4.59L50.67 4.59 50.67 1.21Q55.35-2.97 55.35-18.99L55.35-18.99 55.35-35.32 60.3-35.32 60.3-24.88 64.26-24.88Q66.02-22.36 67.59-17.01L67.59-17.01 67.59-34.42 72.54-34.42 72.54-24.88 76.32-24.88Q77.58-23.09 78.48-20.59 79.38-18.09 80.19-15.03L80.19-15.03 80.19-35.32ZM50.67-11.34L46.84-11.34Q47.43-11.97 48.24-14.67 49.05-17.37 49.66-20.38 50.27-23.4 50.22-24.84L50.22-24.84 55.17-24.84Q54.77-21.64 53.39-17.14 52.02-12.64 50.67-11.34L50.67-11.34ZM105.66-13.54L105.66-11.03Q105.66-10.8 105.53-10.62 105.39-10.44 105.21-10.39L105.21-10.39Q104.27-10.08 102.91-9.86 101.56-9.63 100.75-9.63L100.75-9.63 93.06-9.63 93.06-12.55 95.22-12.55Q98.01-14.98 100.17-20.02L100.17-20.02 92.07-20.02 92.07-22.95 93.28-22.95Q95.36-25.65 96.44-28.98 97.52-32.31 98.23-36.23L98.23-36.23 103.19-36.23Q102.38-31.81 100.96-28.84 99.54-25.88 97.56-22.95L97.56-22.95 101.3-22.95Q102.38-26.28 102.87-29.07L102.87-29.07 107.82-29.07Q104.89-16.92 99.77-12.55L99.77-12.55Q101.88-12.6 105.66-13.54L105.66-13.54ZM121.59-17.37L121.59-16.06Q122.22-13.14 123.66-10.44L123.66-10.44Q125.78-12.33 127.48-15.57L127.48-15.57 132.44-15.57Q129.91-10.53 125.59-7.51L125.59-7.51Q128.56-3.69 132.93-1.75L132.93-1.75 132.93 1.17Q129.56 0.09 126.72-1.64 123.88-3.38 121.59-6.12L121.59-6.12 121.59-1.13Q121.59 3.6 116.86 3.6L116.86 3.6 110.47 3.6 110.47 0.67 115.06 0.67Q116.64 0.67 116.64-0.9L116.64-0.9 116.64-5.17Q115.38-4.14 112.91-2.72 110.43-1.3 105.57 1.26L105.57 1.26 105.57-3.28Q108.09-4.05 111.38-5.92 114.66-7.79 116.64-9.63L116.64-9.63 116.64-15.25 116.59-15.39 116.64-15.39 116.64-17.37 105.53-17.37 105.53-20.29 124.29-20.29 124.29-24.3 108.86-24.3 108.86-27.22 124.29-27.22 124.29-31.68 108.05-31.68 108.05-34.6 129.24-34.6 129.24-20.29 132.93-20.29 132.93-18.04Q132.93-17.77 132.73-17.57 132.53-17.37 132.25-17.37L132.25-17.37 121.59-17.37ZM111.19-15.71Q112.63-13.59 113.31-12.24 113.98-10.89 114.8-8.46L114.8-8.46 111.64-8.46 110.88-9.54Q109.35-11.65 108.47-12.76 107.59-13.86 105.8-15.71L105.8-15.71 111.19-15.71ZM92.07-3.01L100.62-4.14Q101.47-4.27 103.14-4.68L103.14-4.68 104.85-5.13 104.85-2.61Q104.85-2.38 104.72-2.21 104.58-2.02 104.4-1.98L104.4-1.98Q102.91-1.48 101.75-1.21L101.75-1.21 92.07 0.81 92.07-3.01ZM143.55-23.36Q143.55-23.09 143.35-22.88 143.15-22.68 142.88-22.68L142.88-22.68 138.6-22.68 138.6-31.45 156.19-31.45Q154.75-33.8 152.55-36.23L152.55-36.23 157.95-36.23Q159.44-34.34 160.69-31.45L160.69-31.45 176.85-31.45 176.85-23.36Q176.85-23.09 176.65-22.88 176.44-22.68 176.18-22.68L176.18-22.68 171.9-22.68 171.9-28.53 143.55-28.53 143.55-23.36ZM166.91-13.14Q168.07-9.95 171.41-6.43 174.74-2.92 177.93-0.9L177.93-0.9 177.93 2.02Q173.3 0.09 169.43-2.92 165.56-5.94 162.9-11.12L162.9-11.12 161.87-10.66Q161.95-9.76 161.95-9.27L161.95-9.27 161.95-0.4Q161.95 4.09 157.45 4.09L157.45 4.09 148.68 4.09 148.68 1.17 155.12 1.17Q157 1.17 157-0.72L157-0.72 157-4.81Q153.94-2.61 147.94-0.38 141.93 1.84 137.07 2.61L137.07 2.61 137.07-0.32Q140.09-1.08 144-2.63 147.91-4.18 151.47-6.19 155.03-8.19 156.87-10.26L156.87-10.26Q156.82-10.62 156.65-11.65L156.65-11.65Q154.17-9.49 148.68-7.38 143.19-5.26 138.78-4.46L138.78-4.46 138.78-7.38Q143.1-8.69 147.78-11 152.46-13.32 155.12-15.93L155.12-15.93Q154.94-16.38 154.62-16.83L154.62-16.83Q151.38-14.89 147.51-13.59 143.64-12.29 138.78-11.03L138.78-11.03 138.78-13.95Q140.99-14.35 143.96-15.52 146.93-16.7 149.56-18.27 152.19-19.84 153.5-21.46L153.5-21.46 143.87-21.46 143.87-24.39 171.27-24.39 171.27-22.14Q171.27-21.87 171.07-21.67 170.87-21.46 170.59-21.46L170.59-21.46 159.93-21.46Q159.12-20.34 158.09-19.35L158.09-19.35Q160.34-16.96 161.32-13.5L161.32-13.5Q164.07-14.98 166.41-16.74 168.75-18.5 169.47-20.07L169.47-20.07 175.14-20.07Q173.66-16.79 166.91-13.14L166.91-13.14Z" transform="translate(-2.069999933242798, 36.22999954223633)"></path></g> <!----> <!----> <!----> <!----> <!----> <!----> <!----></g></g> <g data-gra="path-slogan" fill-rule="" class="tp-slogan iconsvg-slogansvg" fill="#333" transform="translate(43.09443664550781,46.90999984741211)"><!----> <!----> <g transform="scale(1, 1)"><g transform="scale(1)"><path d="M7.31-3.61L4.69-3.61L4.69-4.59L8.44-4.59L8.44 0L7.69 0L7.41-1.08Q6.42 0.09 4.59 0.14L4.59 0.14Q2.86 0.14 1.92-0.75L1.92-0.75Q0.52-2.06 0.56-4.36L0.56-4.36Q0.89-8.63 4.64-8.81L4.64-8.81Q7.83-8.63 8.30-6L8.30-6L7.17-6Q6.70-7.78 4.59-7.83L4.59-7.83Q1.92-7.64 1.78-4.31L1.78-4.31Q1.78-0.75 4.64-0.75L4.64-0.75Q5.67-0.75 6.42-1.31L6.42-1.31Q7.36-2.06 7.31-3.61L7.31-3.61ZM15.89-3.19L15.89-8.58L17.06-8.58L17.06-3.05Q16.92 0.05 13.55 0.14L13.55 0.14Q10.41 0.05 10.27-2.86L10.27-2.86L10.27-8.58L11.44-8.58L11.44-3.19Q11.48-0.84 13.59-0.80L13.59-0.80Q15.89-0.84 15.89-3.19L15.89-3.19ZM19.03-8.58L20.20-8.58L20.20 0L19.03 0L19.03-8.58ZM23.02-1.03L28.31-1.03L28.31 0L21.56 0L21.56-0.94L26.81-7.59L21.94-7.59L21.94-8.58L28.31-8.58L28.31-7.59L23.02-1.03ZM30.61-5.06L35.11-5.06L35.11-8.58L36.28-8.58L36.28 0L35.11 0L35.11-3.98L30.61-3.98L30.61 0L29.44 0L29.44-8.58L30.61-8.58L30.61-5.06ZM44.86-4.27L44.86-4.27Q44.67-7.64 41.86-7.83L41.86-7.83Q39-7.69 38.86-4.27L38.86-4.27Q39-0.94 41.86-0.80L41.86-0.80Q44.67-0.98 44.86-4.27ZM46.03-4.27L46.03-4.27Q45.75 0 41.86 0.14L41.86 0.14Q37.92 0 37.64-4.27L37.64-4.27Q37.88-8.72 41.86-8.81L41.86-8.81Q45.75-8.67 46.03-4.27ZM53.06-3.19L53.06-8.58L54.23-8.58L54.23-3.05Q54.09 0.05 50.72 0.14L50.72 0.14Q47.58 0.05 47.44-2.86L47.44-2.86L47.44-8.58L48.61-8.58L48.61-3.19Q48.66-0.84 50.77-0.80L50.77-0.80Q53.06-0.84 53.06-3.19L53.06-3.19ZM59.34-8.58L60.52-8.58L60.52-1.03L64.88-1.03L64.88 0L59.34 0L59.34-8.58ZM66.66-8.58L69.09-1.27L71.58-8.58L72.89-8.58L69.75 0L68.48 0L65.34-8.58L66.66-8.58ZM73.27-1.92L73.27-2.77L74.34-2.77L74.34-2.16Q74.34-0.75 75.66-0.75L75.66-0.75Q77.02-0.75 77.02-2.25L77.02-2.25L77.02-8.58L78.19-8.58L78.19-2.30Q78.14 0.09 75.70 0.14L75.70 0.14Q73.41 0.09 73.27-1.92L73.27-1.92ZM80.16-8.58L81.33-8.58L81.33 0L80.16 0L80.16-8.58ZM88.97 0L88.13-2.48L84.66-2.48L83.77 0L82.59 0L85.83-8.58L87.14-8.58L90.23 0L88.97 0ZM86.39-7.31L85.03-3.52L87.70-3.52L86.44-7.31L86.39-7.31Z" transform="translate(-0.5609879032258065, 8.8125)"></path></g></g></g></g></g><defs v-gra="od"></defs></svg>